<svg width="435" height="100" viewBox="0 0 435 100" fill="none" xmlns="http://www.w3.org/2000/svg">
<path d="M50 0.000318128C91.175 5.61497e-05 100 8.825 100 50C100 91.175 91.175 100 50 100C8.825 100.001 -3.98541e-06 91.1756 -2.18558e-06 50.0006C-3.85756e-07 8.82564 8.825 0.000580107 50 0.000318128Z" fill="white"/>
<path d="M72.9617 54.7702C72.9612 54.7713 72.9596 54.7716 72.9587 54.7707L69.5711 51.4057C68.8084 50.6481 68.8082 49.4043 69.5707 48.6465L73.0005 45.2381C73.1861 45.0538 73.3341 44.8998 73.4633 44.7528C75.9158 42.0576 77.1656 38.5738 76.9824 34.9453C76.7991 31.3169 75.2064 27.9731 72.4954 25.5346C68.2951 21.7568 63.1551 19.0944 57.6321 17.8343C52.1092 16.5742 46.3161 16.7446 40.8778 18.3243C35.4394 19.9041 30.4662 22.8628 26.4984 26.881C22.5283 30.8992 19.6458 35.8927 18.1541 41.3296L18.1212 41.4626C16.8127 46.3278 16.6459 51.5104 17.6396 56.4479C18.6334 61.3854 20.7899 66.1083 23.8791 70.1008C26.9683 74.0933 31.0042 77.3811 35.5545 79.6049C40.0978 81.8263 45.1744 83 50.2369 83H50.2581C58.5859 82.9907 66.5426 79.8965 72.6622 74.2846C74.0083 73.0619 75.0725 71.6035 75.8219 69.9515C76.5713 68.2994 76.9659 66.5423 76.9965 64.7292C77.0317 62.8742 76.6958 61.0634 76.0004 59.3414C75.303 57.6224 74.2818 56.083 72.9648 54.7697C72.9638 54.7688 72.9623 54.769 72.9617 54.7702ZM55.6093 55.5275C55.6097 55.5273 55.6101 55.5278 55.6097 55.5281C54.1206 56.8757 52.1928 57.659 50.1876 57.7313C50.1195 57.7313 50.049 57.729 49.9785 57.7266C49.9057 57.7243 49.8329 57.722 49.7694 57.722H49.76C47.7045 57.6193 45.8111 56.7256 44.4297 55.2089C43.0484 53.6921 42.346 51.732 42.4494 49.6926C42.5715 47.7115 43.436 45.8681 44.8831 44.5007C46.3279 43.1357 48.2213 42.368 50.2158 42.3447L50.4366 42.3563C52.3347 42.3727 54.1319 43.103 55.492 44.4144L60.3579 49.2556C60.7872 49.6828 60.7869 50.3835 60.3572 50.8103L55.6089 55.5268C55.6085 55.5271 55.6089 55.5277 55.6093 55.5275ZM50.5752 37.3838H50.2111C46.9175 37.3908 43.7908 38.6392 41.4087 40.8979C39.0266 43.1567 37.6265 46.2018 37.4668 49.4663C37.4527 49.6833 37.4527 49.9003 37.4527 50.108C37.4621 53.4751 38.7917 56.6369 41.1949 59.01C43.5911 61.3761 46.7672 62.6782 50.15 62.6782C50.1617 62.6782 50.1711 62.6782 50.1829 62.6782C53.5187 62.5942 56.6948 61.2968 59.1286 59.0217L63.317 54.8596C64.0594 54.1219 65.2485 54.1217 65.991 54.8593L69.4321 58.2773C70.2731 59.115 70.9262 60.0974 71.3702 61.1964C71.8142 62.2955 72.0279 63.4529 72.0044 64.6382C71.988 65.777 71.739 66.8807 71.2692 67.9214C70.7993 68.9598 70.1321 69.8768 69.2864 70.6468C64.8065 74.728 59.0064 77.3018 52.9573 77.8898C46.9058 78.4778 40.7157 77.0731 35.524 73.93C30.3323 70.7892 26.2353 65.9683 23.9848 60.3587C21.7366 54.7492 21.3772 48.4489 22.9746 42.6247C24.6402 36.7327 28.258 31.4475 33.163 27.742C38.0681 24.0366 44.1619 21.9855 50.3238 21.9668C52.4804 21.9668 54.6181 22.2118 56.7089 22.7018C61.3298 23.7915 65.6335 26.0363 69.1549 29.1981C69.2629 29.2961 69.3687 29.3941 69.472 29.4991C71.1188 31.1325 72.0279 33.3049 72.0303 35.6174C72.0326 37.9298 71.1282 40.1046 69.4838 41.7403L66.0051 45.199C65.2627 45.9372 64.0731 45.9373 63.3304 45.1994L59.1779 41.0729C56.8922 38.7652 53.8382 37.4538 50.5728 37.3838H50.5752Z" fill="#1D1D1D"/>
<path d="M239.766 56.9631V56.8624C239.766 51.4741 244.22 48.5984 250.709 48.5984C253.373 48.5742 256.027 48.9403 258.585 49.6851V48.7839C258.585 44.1749 255.763 41.8028 250.956 41.8028C248.669 41.8 246.408 42.289 244.327 43.2366C244.105 43.3264 243.87 43.3767 243.632 43.3851C243.195 43.3826 242.775 43.2113 242.461 42.9071C242.148 42.6028 241.964 42.1891 241.948 41.7524C241.948 41.4148 242.047 41.0847 242.232 40.8023C242.417 40.5199 242.681 40.2975 242.99 40.1622C245.625 39.0023 248.477 38.4177 251.356 38.4474C252.854 38.3418 254.358 38.5377 255.779 39.0235C257.201 39.5092 258.51 40.275 259.629 41.2753C260.549 42.2799 261.255 43.4599 261.706 44.7443C262.157 46.0287 262.344 47.3911 262.255 48.7495V62.7516C262.273 63.2309 262.099 63.6977 261.773 64.0495C261.447 64.4013 260.995 64.6094 260.515 64.628H260.417C260.187 64.6384 259.957 64.6033 259.741 64.5248C259.525 64.4463 259.326 64.3259 259.156 64.1706C258.987 64.0152 258.849 63.828 258.752 63.6195C258.655 63.411 258.6 63.1854 258.59 62.9556C258.588 62.9212 258.588 62.8867 258.59 62.8523V60.5226C257.507 61.9396 256.103 63.0782 254.492 63.8438C252.881 64.6095 251.111 64.9801 249.328 64.9249C244.578 64.9249 239.763 62.2082 239.763 56.9737M258.627 54.9885V52.4945C256.185 51.7731 253.653 51.4053 251.107 51.4025C246.297 51.4025 243.629 53.491 243.629 56.7033V56.7934C243.629 60.0137 246.599 61.8981 250.065 61.8981C254.774 61.8981 258.632 59.0198 258.632 54.962" fill="white"/>
<path d="M293.29 59.3275L299.881 51.5396L293.865 44.6222C293.131 43.8721 292.701 42.8764 292.659 41.828C292.644 41.3996 292.714 40.9725 292.864 40.5711C293.015 40.1697 293.243 39.8019 293.535 39.4886C293.828 39.1753 294.179 38.9227 294.57 38.7452C294.96 38.5677 295.382 38.4689 295.81 38.4542H296.029C296.708 38.4671 297.374 38.6444 297.97 38.9709C298.565 39.2975 299.072 39.7635 299.448 40.3291L304.21 46.6825L309.072 40.3317C309.425 39.7996 309.894 39.3544 310.444 39.0297C310.993 38.7049 311.61 38.5091 312.246 38.4568C312.67 38.4328 313.094 38.4924 313.495 38.6323C313.895 38.7721 314.264 38.9895 314.581 39.2719C314.897 39.5543 315.155 39.8963 315.34 40.2783C315.524 40.6603 315.631 41.0749 315.655 41.4983V41.6297C315.629 42.5578 315.27 43.4455 314.642 44.1303L308.392 51.4392L314.833 58.8511C315.568 59.5977 315.997 60.5914 316.036 61.6376C316.05 62.066 315.979 62.4928 315.828 62.8938C315.677 63.2948 315.448 63.6621 315.155 63.9746C314.861 64.2872 314.509 64.539 314.118 64.7155C313.728 64.8921 313.306 64.99 312.878 65.0036C312.805 65.0036 312.736 65.0036 312.669 65.0036C311.989 64.9912 311.323 64.814 310.727 64.4875C310.131 64.1609 309.623 63.6947 309.247 63.1287L304.068 56.3015L298.866 63.1313C298.514 63.6637 298.046 64.1092 297.496 64.434C296.947 64.7588 296.33 64.9545 295.694 65.0062C294.838 65.0547 293.998 64.7617 293.358 64.1914C292.717 63.6211 292.33 62.8203 292.28 61.9647V61.8359C292.284 60.9019 292.647 60.0051 293.293 59.3301" fill="white"/>
<path d="M319.229 42.2091C319.229 41.2395 319.614 40.3097 320.3 39.6241C320.986 38.9385 321.916 38.5534 322.886 38.5534C323.856 38.5534 324.786 38.9385 325.472 39.6241C326.158 40.3097 326.544 41.2395 326.544 42.2091V42.5439C327.427 41.231 328.625 40.1599 330.029 39.4281C331.433 38.6963 332.997 38.327 334.58 38.3538C340.596 38.3538 346.329 43.0744 346.329 51.6813V51.7791C346.329 60.3911 340.697 65.0989 334.58 65.0989C333.033 65.1295 331.501 64.7977 330.105 64.13C328.71 63.4623 327.49 62.4773 326.544 61.2539V68.9465C326.544 69.916 326.158 70.8459 325.472 71.5315C324.786 72.217 323.856 72.6022 322.886 72.6022C321.916 72.6022 320.986 72.217 320.3 71.5315C319.614 70.8459 319.229 69.916 319.229 68.9465V42.2091ZM338.999 51.7817V51.6838C339.11 50.7942 339.031 49.8911 338.767 49.0344C338.502 48.1777 338.058 47.387 337.465 46.7148C336.871 46.0427 336.141 45.5044 335.324 45.1356C334.506 44.7669 333.619 44.5763 332.722 44.5763C331.825 44.5763 330.938 44.7669 330.121 45.1356C329.303 45.5044 328.573 46.0427 327.98 46.7148C327.386 47.387 326.942 48.1777 326.678 49.0344C326.413 49.8911 326.334 50.7942 326.446 51.6838V51.7817C326.334 52.6713 326.413 53.5745 326.678 54.4312C326.942 55.2878 327.386 56.0785 327.98 56.7507C328.573 57.4229 329.303 57.9612 330.121 58.3299C330.938 58.6986 331.825 58.8893 332.722 58.8893C333.619 58.8893 334.506 58.6986 335.324 58.3299C336.141 57.9612 336.871 57.4229 337.465 56.7507C338.058 56.0785 338.502 55.2878 338.767 54.4312C339.031 53.5745 339.11 52.6713 338.999 51.7817Z" fill="white"/>
<path d="M376.188 42.2017C376.188 41.2332 376.573 40.3043 377.258 39.6195C377.943 38.9346 378.873 38.5499 379.842 38.5499C380.811 38.5499 381.74 38.9346 382.425 39.6195C383.11 40.3043 383.495 41.2332 383.495 42.2017V43.3529C384.554 40.8523 386.286 38.5396 388.455 38.5396C389.325 38.5344 390.167 38.8502 390.819 39.4267C391.471 40.0031 391.887 40.7995 391.988 41.6635C392.088 42.5275 391.867 43.3983 391.365 44.1092C390.864 44.8201 390.118 45.3211 389.269 45.5162C385.567 46.3815 383.495 49.217 383.495 54.4115V61.2517C383.495 62.2202 383.11 63.1491 382.425 63.8339C381.74 64.5188 380.811 64.9035 379.842 64.9035C378.873 64.9035 377.943 64.5188 377.258 63.8339C376.573 63.1491 376.188 62.2202 376.188 61.2517V42.2017Z" fill="white"/>
<path d="M397.99 57.3182V45.1059H397.753C396.955 45.0601 396.205 44.711 395.656 44.1302C395.108 43.5494 394.802 42.7808 394.802 41.982C394.802 41.1832 395.108 40.4146 395.656 39.8338C396.205 39.253 396.955 38.9039 397.753 38.8581H397.99V35.6337C398.011 34.664 398.416 33.7422 399.117 33.071C399.817 32.3997 400.756 32.034 401.726 32.054C402.67 32.0731 403.57 32.4563 404.238 33.1236C404.905 33.7908 405.289 34.6903 405.308 35.6337V38.8581H408.536C409.334 38.9039 410.084 39.253 410.633 39.8338C411.181 40.4146 411.487 41.1832 411.487 41.982C411.487 42.7808 411.181 43.5494 410.633 44.1302C410.084 44.711 409.334 45.0601 408.536 45.1059H405.308V56.113C405.308 57.805 406.032 58.6188 407.665 58.6188C407.923 58.6188 408.387 58.5724 408.534 58.5724C409.338 58.5758 410.108 58.8974 410.676 59.4669C411.244 60.0364 411.563 60.8074 411.564 61.6114C411.559 62.2025 411.379 62.779 411.044 63.2668C410.71 63.7545 410.238 64.1314 409.688 64.349C408.353 64.8664 406.929 65.1125 405.498 65.0726C401.02 65.0726 397.99 63.2956 397.99 57.3285" fill="white"/>
<path d="M415.269 62.1338C414.733 61.8061 414.317 61.3127 414.085 60.7282C413.854 60.1437 413.819 59.4997 413.985 58.8935C414.152 58.2873 414.511 57.7517 415.009 57.3676C415.507 56.9835 416.117 56.7717 416.746 56.7642C417.252 56.7624 417.75 56.8948 418.189 57.1479C420.252 58.5391 422.659 59.3333 425.146 59.4426C427.256 59.4426 428.212 58.67 428.212 57.5342V57.4312C428.212 55.8551 425.723 55.322 422.891 54.4644C419.284 53.4059 415.218 51.7345 415.218 46.7383V46.6559C415.218 41.4305 419.444 38.5075 424.615 38.5075C427.385 38.5435 430.109 39.2168 432.577 40.4751C433.097 40.715 433.536 41.1006 433.842 41.5851C434.147 42.0696 434.306 42.6323 434.298 43.2049C434.298 43.9665 433.995 44.6969 433.456 45.2354C432.917 45.7739 432.187 46.0765 431.425 46.0765H431.376C430.908 46.0841 430.447 45.9677 430.039 45.7391C428.318 44.8037 426.417 44.2478 424.463 44.1089C422.693 44.1089 421.786 44.8815 421.786 45.8833V45.9786C421.786 47.4182 424.226 48.0878 427.011 49.0433C430.603 50.2434 434.782 51.9714 434.782 56.6638V56.7616C434.782 62.4635 430.51 65.0491 424.955 65.0491C421.514 65.0252 418.152 64.0114 415.272 62.1287" fill="white"/>
<path d="M369.498 57.0848C368.855 57.0619 368.224 57.2652 367.715 57.6591C366.225 58.7974 364.398 59.4073 362.523 59.3923C361.468 59.4557 360.414 59.2377 359.471 58.7608C358.528 58.2839 357.728 57.5651 357.153 56.6779L357.097 56.5981C357.025 56.4822 356.968 56.3405 356.903 56.2298C356.803 56.047 356.72 55.859 356.646 55.6761L356.53 55.3799C360.495 55.7061 364.477 55.0073 368.094 53.3506C369.795 52.3224 371.044 50.6885 371.589 48.7774C372.135 46.8664 371.936 44.8198 371.034 43.0491C370.218 41.4454 368.931 40.13 367.345 39.2804C365.758 38.4308 363.95 38.0878 362.162 38.2976C358.627 38.3275 355.247 39.7597 352.768 42.2791C350.288 44.7986 348.911 48.1992 348.939 51.7332V51.9393C348.823 55.3585 350.071 58.6838 352.407 61.1836C354.744 63.6835 357.979 65.1531 361.4 65.2693C361.737 65.2822 362.072 65.2693 362.41 65.2693C365.677 65.3565 368.862 64.2432 371.363 62.1403C371.669 61.8687 371.913 61.535 372.079 61.1614C372.246 60.7879 372.33 60.3832 372.327 59.9744C372.351 59.2345 372.08 58.5155 371.573 57.9752C371.067 57.4349 370.367 57.1174 369.627 57.0926H369.488M356.646 47.8728L356.71 47.7028C357.199 46.6231 357.98 45.7017 358.965 45.0431C359.951 44.3844 361.101 44.0149 362.286 43.9763C362.801 43.9763 365.401 43.8166 365.893 46.0365C366.349 48.0968 364.396 50.3734 356.033 50.3219C356.056 50.1417 356.076 49.9382 356.107 49.7682C356.208 49.1159 356.381 48.4767 356.623 47.8625" fill="white"/>
<path d="M286.67 57.0831C286.028 57.0599 285.398 57.2632 284.892 57.6574C283.4 58.7976 281.57 59.4075 279.692 59.3907C278.638 59.4526 277.586 59.2339 276.644 58.7571C275.702 58.2802 274.904 57.5622 274.33 56.6762L274.273 56.5964C274.199 56.4805 274.145 56.3389 274.08 56.2281C273.985 56.048 273.899 55.8632 273.822 55.6744L273.699 55.3782C277.665 55.7032 281.649 55.0045 285.268 53.3489C286.969 52.3203 288.217 50.6859 288.761 48.7746C289.305 46.8633 289.105 44.817 288.2 43.0474C287.387 41.4466 286.103 40.133 284.521 39.2835C282.938 38.434 281.134 38.0894 279.349 38.2959C277.599 38.3107 275.868 38.6701 274.256 39.3534C272.644 40.0368 271.183 41.0308 269.956 42.2787C268.728 43.5265 267.759 45.0038 267.103 46.6262C266.446 48.2486 266.116 49.9842 266.131 51.7341V51.9376C266.015 55.3542 267.261 58.6772 269.594 61.1766C271.928 63.676 275.158 65.1474 278.576 65.2676C278.916 65.2805 279.257 65.2676 279.607 65.2676C282.874 65.3527 286.059 64.2396 288.561 62.1386C288.865 61.8661 289.109 61.5322 289.275 61.1588C289.441 60.7855 289.526 60.3813 289.524 59.9727C289.536 59.6059 289.476 59.2403 289.347 58.8969C289.217 58.5534 289.022 58.2388 288.771 57.9709C288.52 57.7031 288.218 57.4873 287.884 57.3358C287.549 57.1844 287.188 57.1003 286.822 57.0883H286.68M273.846 47.8685L273.915 47.6985C274.404 46.619 275.185 45.6978 276.171 45.0392C277.156 44.3806 278.306 44.0109 279.491 43.972C280.006 43.972 282.604 43.8123 283.098 46.0323C283.554 48.0926 281.606 50.3692 273.238 50.3177C273.263 50.1374 273.284 49.9339 273.318 49.764C273.416 49.1112 273.589 48.4719 273.833 47.8582" fill="white"/>
<path d="M130.005 51.8327V51.7347C129.993 49.1216 130.75 46.5627 132.184 44.3776C133.618 42.1925 135.664 40.4781 138.067 39.4486C140.47 38.4191 143.123 38.12 145.695 38.5888C148.267 39.0576 150.644 40.2735 152.529 42.0845C152.714 42.2521 152.863 42.4564 152.965 42.6846C153.068 42.9128 153.121 43.1597 153.123 43.4097C153.123 43.6494 153.077 43.8869 152.986 44.1086C152.894 44.3302 152.76 44.5318 152.591 44.7016C152.422 44.8715 152.221 45.0063 152 45.0984C151.778 45.1906 151.541 45.2382 151.301 45.2385C150.849 45.2374 150.412 45.0801 150.063 44.7932C149.161 43.8456 148.08 43.0866 146.882 42.5602C145.685 42.0337 144.394 41.7504 143.086 41.7267C140.582 41.8002 138.211 42.8645 136.492 44.6856C134.774 46.5067 133.849 48.9355 133.922 51.4378V51.6233V51.7241C133.82 54.2574 134.729 56.7275 136.449 58.5909C138.169 60.4543 140.559 61.5584 143.094 61.6604H143.327C146.022 61.6082 148.588 60.4947 150.466 58.5621C150.604 58.41 150.772 58.2878 150.96 58.203C151.147 58.1183 151.35 58.0727 151.556 58.0691C152.013 58.0799 152.45 58.2665 152.774 58.5903C153.098 58.914 153.284 59.35 153.295 59.8078C153.29 60.2516 153.113 60.6763 152.802 60.9925C151.572 62.3161 150.076 63.3657 148.413 64.0731C146.75 64.7805 144.957 65.1297 143.15 65.098C141.423 65.099 139.713 64.7597 138.117 64.0995C136.522 63.4393 135.072 62.4711 133.851 61.2504C132.63 60.0296 131.662 58.5803 131.002 56.9852C130.342 55.3901 130.004 53.6807 130.005 51.9546V51.8327Z" fill="white"/>
<path d="M158.7 30.0728C158.678 29.8227 158.706 29.5708 158.782 29.3316C158.858 29.0923 158.98 28.8704 159.142 28.6784C159.304 28.4864 159.502 28.3282 159.725 28.2127C159.948 28.0972 160.192 28.0268 160.442 28.0055C160.947 27.9636 161.449 28.1236 161.836 28.4505C162.224 28.7773 162.466 29.2444 162.51 29.7494C162.52 29.857 162.52 29.9652 162.51 30.0728V62.8265C162.52 63.0708 162.482 63.3147 162.397 63.5441C162.312 63.7735 162.183 63.9839 162.017 64.1632C161.85 64.3425 161.65 64.4872 161.428 64.5889C161.205 64.6907 160.965 64.7474 160.72 64.7559H160.63C160.126 64.7637 159.64 64.5713 159.278 64.221C158.916 63.8706 158.708 63.391 158.7 62.8874V30.0728Z" fill="white"/>
<path d="M167.904 40.6121C167.914 40.1182 168.115 39.6475 168.466 39.2994C168.817 38.9513 169.289 38.7529 169.783 38.746C170.277 38.7391 170.755 38.9243 171.115 39.2626C171.475 39.6008 171.69 40.0656 171.714 40.559V62.8224C171.724 63.0668 171.685 63.3106 171.6 63.5398C171.515 63.7691 171.385 63.9793 171.219 64.1584C171.052 64.3375 170.852 64.4818 170.629 64.5833C170.407 64.6847 170.166 64.7411 169.922 64.7493C169.892 64.7509 169.863 64.7509 169.834 64.7493C169.33 64.7571 168.844 64.5647 168.482 64.2143C168.12 63.8639 167.912 63.3843 167.904 62.8807V40.6174V40.6121ZM168.795 34.5797C168.8 34.312 168.887 34.0523 169.044 33.835L172.011 29.3293C172.181 28.9994 172.436 28.7204 172.749 28.5207C173.062 28.321 173.422 28.2076 173.793 28.1923C174.981 28.1923 176.466 28.9874 176.466 29.6765C176.389 30.1305 176.14 30.5375 175.771 30.8135L172.059 34.3306C171.771 34.6569 171.411 34.9116 171.007 35.0745C170.603 35.2373 170.167 35.3039 169.733 35.2688C169.203 35.2688 168.795 34.972 168.795 34.5771V34.5797Z" fill="white"/>
<path d="M177.357 40.6025C177.35 40.0968 177.544 39.6089 177.897 39.2463C178.25 38.8837 178.732 38.6761 179.238 38.6691C179.744 38.662 180.232 38.8562 180.595 39.2089C180.958 39.5615 181.166 40.0438 181.173 40.5495V43.3828C182.032 41.8279 183.304 40.5394 184.847 39.6582C186.39 38.7771 188.147 38.3372 189.923 38.3868C191.269 38.3139 192.614 38.5325 193.866 39.0276C195.119 39.5227 196.25 40.2825 197.182 41.2551C198.114 42.2277 198.824 43.39 199.265 44.6626C199.705 45.9351 199.866 47.2878 199.734 48.628V62.8262C199.756 63.0766 199.727 63.3287 199.651 63.5682C199.575 63.8077 199.452 64.0299 199.29 64.2219C198.963 64.6099 198.494 64.8519 197.988 64.8948C197.482 64.9377 196.98 64.7779 196.592 64.4506C196.204 64.1233 195.962 63.6553 195.919 63.1495C195.912 63.0418 195.912 62.9338 195.919 62.8262V49.5741C195.919 44.8246 193.347 41.8588 188.844 41.8588C187.855 41.8374 186.872 42.0108 185.951 42.3692C185.029 42.7277 184.187 43.2641 183.473 43.9479C182.759 44.6316 182.186 45.4493 181.789 46.3542C181.391 47.2591 181.175 48.2334 181.154 49.2216C181.154 49.4416 181.154 49.6563 181.17 49.8736V62.8262C181.18 63.0707 181.141 63.3148 181.057 63.5444C180.972 63.774 180.842 63.9845 180.676 64.1638C180.509 64.3432 180.308 64.4878 180.086 64.5894C179.863 64.691 179.622 64.7475 179.378 64.7557H179.287C178.783 64.7635 178.297 64.571 177.935 64.2207C177.573 63.8703 177.365 63.3907 177.357 62.8871V40.6025Z" fill="white"/>
<path d="M204.638 30.9142C204.664 30.6187 204.748 30.3312 204.885 30.0681C205.022 29.805 205.21 29.5716 205.438 29.3811C205.665 29.1905 205.928 29.0467 206.211 28.9578C206.495 28.8689 206.792 28.8366 207.088 28.8628C207.617 28.9093 208.112 29.1404 208.488 29.5155C208.863 29.8906 209.094 30.3858 209.141 30.9142V31.5583C209.115 31.8537 209.031 32.1412 208.894 32.4042C208.757 32.6673 208.57 32.9007 208.342 33.0913C208.115 33.2818 207.852 33.4257 207.569 33.5146C207.286 33.6036 206.989 33.6359 206.693 33.6097C206.164 33.5643 205.667 33.3336 205.291 32.9584C204.915 32.5831 204.684 32.0873 204.638 31.5583V30.9142ZM204.985 40.612C204.996 40.1182 205.197 39.6475 205.548 39.2994C205.899 38.9513 206.371 38.7529 206.865 38.746C207.359 38.7391 207.837 38.9243 208.197 39.2626C208.557 39.6008 208.772 40.0656 208.796 40.559V62.8224C208.805 63.0665 208.767 63.3101 208.682 63.5392C208.597 63.7684 208.468 63.9785 208.301 64.1575C208.135 64.3365 207.935 64.4809 207.713 64.5825C207.49 64.6841 207.25 64.7407 207.006 64.7493C206.976 64.7509 206.946 64.7509 206.916 64.7493C206.412 64.7571 205.926 64.5647 205.564 64.2143C205.202 63.8639 204.994 63.3843 204.985 62.8807V40.6173V40.612Z" fill="white"/>
<path d="M212.836 51.8338V51.7357C212.823 49.1226 213.58 46.5635 215.013 44.3782C216.447 42.1929 218.493 40.4783 220.896 39.4486C223.299 38.419 225.952 38.12 228.524 38.589C231.096 39.058 233.472 40.2742 235.357 42.0856C235.544 42.2522 235.693 42.4564 235.796 42.6847C235.899 42.913 235.952 43.1604 235.953 43.4108C235.953 43.8958 235.761 44.361 235.417 44.7039C235.074 45.0469 234.609 45.2396 234.124 45.2396C233.673 45.2387 233.236 45.0813 232.888 44.7943C231.985 43.8466 230.903 43.0876 229.705 42.5612C228.506 42.0348 227.215 41.7515 225.906 41.7278C224.667 41.7638 223.447 42.0435 222.315 42.5509C221.184 43.0583 220.164 43.7835 219.313 44.6851C218.462 45.5866 217.798 46.6469 217.357 47.8052C216.916 48.9636 216.708 50.1974 216.745 51.4362V51.6244V51.7251C216.643 54.2584 217.552 56.7285 219.272 58.5919C220.992 60.4553 223.382 61.5595 225.917 61.6615H226.15C228.845 61.6011 231.407 60.4812 233.28 58.5446C233.418 58.3923 233.586 58.27 233.773 58.1852C233.96 58.1004 234.162 58.0549 234.368 58.0516C234.825 58.0637 235.261 58.2507 235.584 58.5742C235.908 58.8977 236.095 59.333 236.107 59.7903C236.102 60.2346 235.925 60.6597 235.611 60.975C234.381 62.2984 232.886 63.348 231.223 64.0554C229.56 64.7627 227.766 65.112 225.959 65.0805C224.233 65.0794 222.525 64.7385 220.931 64.0772C219.337 63.4158 217.89 62.447 216.671 61.2262C215.452 60.0053 214.485 58.5563 213.827 56.962C213.168 55.3677 212.831 53.6593 212.833 51.9345L212.836 51.8338Z" fill="white"/>
<path d="M239.813 57.0871V56.9837C239.813 51.5955 244.268 48.7198 250.754 48.7198C253.416 48.6963 256.066 49.0633 258.621 49.8091V48.9238C258.621 44.3227 255.803 41.9427 250.998 41.9427C248.711 41.9417 246.45 42.4316 244.369 43.3792C244.147 43.4702 243.911 43.5205 243.671 43.5276C243.234 43.5251 242.814 43.3534 242.501 43.0485C242.188 42.7436 242.004 42.3293 241.99 41.8923C241.992 41.5551 242.091 41.2255 242.276 40.9434C242.461 40.6612 242.724 40.4385 243.032 40.3021C245.665 39.1336 248.518 38.5408 251.398 38.5634C252.896 38.4593 254.399 38.6564 255.819 39.1431C257.239 39.6297 258.547 40.396 259.666 41.3967C260.586 42.4007 261.293 43.5807 261.743 44.8653C262.194 46.1499 262.38 47.5125 262.289 48.8708V62.865C262.298 63.1022 262.261 63.3389 262.179 63.5618C262.097 63.7846 261.972 63.9891 261.811 64.1636C261.65 64.3381 261.456 64.4791 261.241 64.5788C261.025 64.6784 260.792 64.7345 260.554 64.7441H260.459C260.229 64.7548 259.998 64.7198 259.781 64.6411C259.564 64.5624 259.365 64.4416 259.195 64.2857C259.025 64.1298 258.887 63.9418 258.79 63.7325C258.693 63.5233 258.639 63.2969 258.629 63.0664C258.629 63.0319 258.629 62.9948 258.629 62.963V60.6466C257.548 62.0634 256.144 63.2019 254.534 63.9675C252.924 64.7332 251.154 65.1039 249.372 65.0489C244.618 65.0515 239.813 62.3349 239.813 57.0871ZM258.674 55.1072V52.6318C256.23 51.9137 253.696 51.5477 251.149 51.5451C246.349 51.5451 243.671 53.631 243.671 56.8459V56.944C243.671 60.1589 246.641 62.0433 250.104 62.0433C254.811 62.0354 258.674 59.1571 258.674 55.1072Z" fill="white"/>
</svg>
